<?xml version="1.0" standalone="yes"?>
<svg xmlns="http://www.w3.org/2000/svg" width="592" height="304">
<path style="fill:#fffffd; stroke:none;" d="M0 0L0 304L592 304L592 0L0 0z"/>
<path style="fill:#a2bccc; stroke:none;" d="M349 48L349 49L351 51L352 51L349 48M346 49L347 50L346 49z"/>
<path style="fill:#1f9bf9; stroke:none;" d="M253 80L333 114.421L381 134C374.324 113.483 366.42 93.3782 359.344 73C357.46 67.5741 355.132 53.3407 350.298 50.0679C345.728 46.9738 330.851 54.3832 326 56C309.401 61.5319 292.617 66.5147 276 71.9992C268.521 74.4678 259.703 75.7823 253 80z"/>
<path style="fill:#a2bccc; stroke:none;" d="M354 49L354 51L356 49L354 49M342.667 50.3333L343.333 50.6667L342.667 50.3333z"/>
<path style="fill:#1f9bf9; stroke:none;" d="M355 50C362.593 77.8186 373.316 107.641 385 134C398.388 119.748 409.799 97.2841 419 80L355 50z"/>
<path style="fill:#a2bccc; stroke:none;" d="M357 50L358 51L357 50M339.667 51.3333L340.333 51.6667L339.667 51.3333M359 51L360 52L359 51M336 52L337 53L336 52M352.333 52.6667L352.667 53.3333L352.333 52.6667M355.333 52.6667L355.667 53.3333L355.333 52.6667M361 52L362 53L361 52M333 53L334 54L333 53M363 53L364 54L363 53M330 54L331 55L330 54M353 54L353 57L354 57L353 54M356 54L356 57L357 57L356 54M365 54L366 55L365 54M327 55L328 56L327 55M368 55L369 56L368 55M324 56L325 57L324 56M370 56L371 57L370 56M320.667 57.3333L321.333 57.6667L320.667 57.3333M354 57L354 60L355 60L354 57M357.333 57.6667L357.667 58.3333L357.333 57.6667M372 57L373 58L372 57M317.667 58.3333L318.333 58.6667L317.667 58.3333M374 58L375 59L374 58M314 59L315 60L314 59M376 59L377 60L376 59M311 60L312 61L311 60M355 60L355 63L356 63L355 60M358.333 60.6667L358.667 61.3333L358.333 60.6667M378 60L379 61L378 60M308 61L309 62L308 61M380 61L381 62L380 61M305 62L306 63L305 62M382 62L383 63L382 62M302 63L303 64L302 63M356.333 63.6667L356.667 64.3333L356.333 63.6667M359.333 63.6667L359.667 64.3333L359.333 63.6667M384 63L385 64L384 63M298.667 64.3333L299.333 64.6667L298.667 64.3333M386 64L387 65L386 64M295.667 65.3333L296.333 65.6667L295.667 65.3333M388 65L389 66L388 65M292.667 66.3333L293.333 66.6667L292.667 66.3333M357.333 66.6667L357.667 67.3333L357.333 66.6667M360.333 66.6667L360.667 67.3333L360.333 66.6667M390 66L391 67L390 66M289 67L290 68L289 67M392 67L393 68L392 67M286 68L287 69L286 68M358 68L358 71L359 71L358 68M361 68L361 71L362 71L361 68M394 68L395 69L394 68M283 69L284 70L283 69M397 69L398 70L397 69M280 70L281 71L280 70M399 70L400 71L399 70M276.667 71.3333L277.333 71.6667L276.667 71.3333M359 71L359 74L360 74L359 71M362.333 71.6667L362.667 72.3333L362.333 71.6667M401 71L402 72L401 71M273.667 72.3333L274.333 72.6667L273.667 72.3333M403 72L404 73L403 72M270.667 73.3333L271.333 73.6667L270.667 73.3333M405 73L406 74L405 73M267 74L268 75L267 74M360 74L360 77L361 77L360 74M363.333 74.6667L363.667 75.3333L363.333 74.6667M407 74L408 75L407 74M264 75L265 76L264 75M409 75L410 76L409 75M261 76L262 77L261 76M411 76L412 77L411 76M258 77L259 78L258 77M361.333 77.6667L361.667 78.3333L361.333 77.6667M364.333 77.6667L364.667 78.3333L364.333 77.6667M413 77L414 78L413 77M254.667 78.3333L255.333 78.6667L254.667 78.3333M415 78L416 79L415 78M251 79L254 81L251 79M417 79L418 80L417 79M362.333 80.6667L362.667 81.3333L362.333 80.6667M365.333 80.6667L365.667 81.3333L365.333 80.6667M447 80L447 81L473 81L471 87L472 87L474 80L447 80M255 81L256 82L255 81M418 81L419 82L418 81M423 81L424 84L425 84L423 81z"/>
<path style="fill:#1f9bf9; stroke:none;" d="M424 81L449 137L450 137L473 81L424 81z"/>
<path style="fill:#a2bccc; stroke:none;" d="M257 82L258 83L257 82M363 82L363 85L364 85L363 82M366 82L366 85L367 85L366 82M417 82L418 83L417 82M259.667 83.3333L260.333 83.6667L259.667 83.3333M418 86L422 84L418 86M262 84L263 85L262 84M416 84L417 85L416 84z"/>
<path style="fill:#042c46; stroke:none;" d="M420 84L388 137L446 140L429.258 102L420 84z"/>
<path style="fill:#607b8b; stroke:none;" d="M421 84L422 85L421 84z"/>
<path style="fill:#a2bccc; stroke:none;" d="M264.667 85.3333L265.333 85.6667L264.667 85.3333M364 85L364 88L365 88L364 85M367.333 85.6667L367.667 86.3333L367.333 85.6667z"/>
<path style="fill:#607b8b; stroke:none;" d="M419 85L420 86L419 85z"/>
<path style="fill:#a2bccc; stroke:none;" d="M422 85L423 86L422 85M425 85L426 86L425 85M266.667 86.3333L267.333 86.6667L266.667 86.3333M415 86L416 87L415 86z"/>
<path style="fill:#607b8b; stroke:none;" d="M418 86L419 87L418 86M422 86L424 92L425 92L422 86z"/>
<path style="fill:#a2bccc; stroke:none;" d="M269 87L270 88L269 87M414 87L415 88L414 87M417 87L418 88L417 87M423 87L424 88L423 87M426.333 87.6667L426.667 88.3333L426.333 87.6667M271.667 88.3333L272.333 88.6667L271.667 88.3333M365 88L365 91L366 91L365 88M368.333 88.6667L368.667 89.3333L368.333 88.6667z"/>
<path style="fill:#607b8b; stroke:none;" d="M417 88L418 89L417 88z"/>
<path style="fill:#a2bccc; stroke:none;" d="M470.333 88.6667L470.667 89.3333L470.333 88.6667M273.667 89.3333L274.333 89.6667L273.667 89.3333M413 89L414 90L413 89M416 89L415 91L416 89M424 89L425 90L424 89M427.333 89.6667L427.667 90.3333L427.333 89.6667M276 90L277 91L276 90M412 90L413 91L412 90z"/>
<path style="fill:#607b8b; stroke:none;" d="M416 90L417 91L416 90z"/>
<path style="fill:#a2bccc; stroke:none;" d="M469.333 90.6667L469.667 91.3333L469.333 90.6667M278.667 91.3333L279.333 91.6667L278.667 91.3333M366.333 91.6667L366.667 92.3333L366.333 91.6667M369.333 91.6667L369.667 92.3333L369.333 91.6667z"/>
<path style="fill:#607b8b; stroke:none;" d="M415 91L416 92L415 91z"/>
<path style="fill:#a2bccc; stroke:none;" d="M425.333 91.6667L425.667 92.3333L425.333 91.6667M428.333 91.6667L428.667 92.3333L428.333 91.6667M281 92L282 93L281 92M411 92L412 93L411 92M414 92L413 94L414 92M468.333 92.6667L468.667 93.3333L468.333 92.6667M283 93L284 94L283 93M367 93L367 96L368 96L367 93z"/>
<path style="fill:#607b8b; stroke:none;" d="M414 93L415 94L414 93M425 93L426 94L425 93z"/>
<path style="fill:#a2bccc; stroke:none;" d="M429.333 93.6667L429.667 94.3333L429.333 93.6667M285.667 94.3333L286.333 94.6667L285.667 94.3333M370.333 94.6667L370.667 95.3333L370.333 94.6667M410 94L411 95L410 94z"/>
<path style="fill:#607b8b; stroke:none;" d="M413 94L414 95L413 94z"/>
<path style="fill:#a2bccc; stroke:none;" d="M426 94L427 95L426 94M288 95L289 96L288 95M409 95L410 96L409 95M412 95L413 96L412 95z"/>
<path style="fill:#607b8b; stroke:none;" d="M426 95L427 96L426 95z"/>
<path style="fill:#a2bccc; stroke:none;" d="M467.333 95.6667L467.667 96.3333L467.333 95.6667M290 96L291 97L290 96M368 96L368 99L369 99L368 96M371 96L371 99L372 99L371 96z"/>
<path style="fill:#607b8b; stroke:none;" d="M412 96L413 97L412 96z"/>
<path style="fill:#a2bccc; stroke:none;" d="M427 96L428 97L427 96M430 96L431 97L430 96M292.667 97.3333L293.333 97.6667L292.667 97.3333M408 97L409 98L408 97M411 97L410 99L411 97z"/>
<path style="fill:#607b8b; stroke:none;" d="M427 97L429 103L430 103L427 97z"/>
<path style="fill:#a2bccc; stroke:none;" d="M466.333 97.6667L466.667 98.3333L466.333 97.6667M295 98L296 99L295 98M407.333 98.6667L407.667 99.3333L407.333 98.6667z"/>
<path style="fill:#607b8b; stroke:none;" d="M411 98L412 99L411 98z"/>
<path style="fill:#a2bccc; stroke:none;" d="M428 98L429 99L428 98M431.333 98.6667L431.667 99.3333L431.333 98.6667M297 99L298 100L297 99M369 99L369 102L370 102L369 99M372.333 99.6667L372.667 100.333L372.333 99.6667z"/>
<path style="fill:#607b8b; stroke:none;" d="M410 99L411 100L410 99z"/>
<path style="fill:#a2bccc; stroke:none;" d="M465 99L465 102L466 102L465 99M299.667 100.333L300.333 100.667L299.667 100.333M406 100L407 101L406 100M409 100L408 102L409 100M429 100L430 101L429 100M432.333 100.667L432.667 101.333L432.333 100.667M302 101L303 102L302 101z"/>
<path style="fill:#607b8b; stroke:none;" d="M409 101L410 102L409 101z"/>
<path style="fill:#a2bccc; stroke:none;" d="M304 102L305 103L304 102M370 102L370 105L371 105L370 102M373.333 102.667L373.667 103.333L373.333 102.667M405 102L406 103L405 102z"/>
<path style="fill:#607b8b; stroke:none;" d="M408 102L409 103L408 102z"/>
<path style="fill:#a2bccc; stroke:none;" d="M430.333 102.667L430.667 103.333L430.333 102.667M433.333 102.667L433.667 103.333L433.333 102.667M464.333 102.667L464.667 103.333L464.333 102.667M306.667 103.333L307.333 103.667L306.667 103.333M404 103L405 104L404 103M407 103L408 104L407 103M309 104L310 105L309 104z"/>
<path style="fill:#607b8b; stroke:none;" d="M407 104L408 105L407 104M430 104L431 105L430 104z"/>
<path style="fill:#a2bccc; stroke:none;" d="M434.333 104.667L434.667 105.333L434.333 104.667M463.333 104.667L463.667 105.333L463.333 104.667M311.667 105.333L312.333 105.667L311.667 105.333M371.333 105.667L371.667 106.333L371.333 105.667M374.333 105.667L374.667 106.333L374.333 105.667M403 105L404 106L403 105M406 105L405 107L406 105M431 105L432 106L431 105M313.667 106.333L314.333 106.667L313.667 106.333M402.333 106.667L402.667 107.333L402.333 106.667z"/>
<path style="fill:#607b8b; stroke:none;" d="M406 106L407 107L406 106M431 106L432 107L431 106z"/>
<path style="fill:#a2bccc; stroke:none;" d="M435.333 106.667L435.667 107.333L435.333 106.667M462 106L462 109L463 109L462 106M316 107L317 108L316 107M375 107L375 110L376 110L375 107z"/>
<path style="fill:#607b8b; stroke:none;" d="M405 107L406 108L405 107z"/>
<path style="fill:#a2bccc; stroke:none;" d="M432 107L433 108L432 107M318.667 108.333L319.333 108.667L318.667 108.333M372.333 108.667L372.667 109.333L372.333 108.667M401 108L402 109L401 108M404 108L402 112L403 112L404 108z"/>
<path style="fill:#607b8b; stroke:none;" d="M432 108L433 109L432 108z"/>
<path style="fill:#a2bccc; stroke:none;" d="M321 109L322 110L321 109z"/>
<path style="fill:#607b8b; stroke:none;" d="M404 109L405 110L404 109z"/>
<path style="fill:#a2bccc; stroke:none;" d="M433 109L434 110L433 109M436 109L437 110L436 109M461.333 109.667L461.667 110.333L461.333 109.667M323 110L324 111L323 110M373 110L373 113L374 113L373 110M376 110L376 113L377 113L376 110M400 110L401 111L400 110z"/>
<path style="fill:#607b8b; stroke:none;" d="M433 110L435 116L436 116L433 110z"/>
<path style="fill:#a2bccc; stroke:none;" d="M325.667 111.333L326.333 111.667L325.667 111.333M399 111L400 112L399 111z"/>
<path style="fill:#607b8b; stroke:none;" d="M403 111L404 112L403 111z"/>
<path style="fill:#a2bccc; stroke:none;" d="M434 111L435 112L434 111M437.333 111.667L437.667 112.333L437.333 111.667M460.333 111.667L460.667 112.333L460.333 111.667M328 112L329 113L328 112z"/>
<path style="fill:#607b8b; stroke:none;" d="M402 112L403 113L402 112z"/>
<path style="fill:#a2bccc; stroke:none;" d="M330 113L331 114L330 113M374 113L374 116L375 116L374 113M377.333 113.667L377.667 114.333L377.333 113.667M398 113L399 114L398 113M401 113L400 115L401 113M435 113L436 114L435 113M438.333 113.667L438.667 114.333L438.333 113.667M332.667 114.333L333.333 114.667L332.667 114.333M397.333 114.667L397.667 115.333L397.333 114.667z"/>
<path style="fill:#607b8b; stroke:none;" d="M401 114L402 115L401 114z"/>
<path style="fill:#a2bccc; stroke:none;" d="M459.333 114.667L459.667 115.333L459.333 114.667M335 115L336 116L335 115z"/>
<path style="fill:#607b8b; stroke:none;" d="M400 115L401 116L400 115z"/>
<path style="fill:#a2bccc; stroke:none;" d="M436.333 115.667L436.667 116.333L436.333 115.667M439.333 115.667L439.667 116.333L439.333 115.667M337 116L338 117L337 116M375 116L375 119L376 119L375 116M378.333 116.667L378.667 117.333L378.333 116.667M396 116L397 117L396 116M399 116L397 120L398 120L399 116M458.333 116.667L458.667 117.333L458.333 116.667M339.667 117.333L340.333 117.667L339.667 117.333z"/>
<path style="fill:#607b8b; stroke:none;" d="M399 117L400 118L399 117M436 117L437 118L436 117z"/>
<path style="fill:#a2bccc; stroke:none;" d="M440.333 117.667L440.667 118.333L440.333 117.667M342 118L343 119L342 118M395 118L396 119L395 118M437 118L438 119L437 118M457.333 118.667L457.667 119.333L457.333 118.667M344 119L345 120L344 119M376.333 119.667L376.667 120.333L376.333 119.667M379.333 119.667L379.667 120.333L379.333 119.667M394 119L395 120L394 119z"/>
<path style="fill:#607b8b; stroke:none;" d="M398 119L399 120L398 119M437 119L438 120L437 119z"/>
<path style="fill:#a2bccc; stroke:none;" d="M346.667 120.333L347.333 120.667L346.667 120.333z"/>
<path style="fill:#607b8b; stroke:none;" d="M397 120L398 121L397 120z"/>
<path style="fill:#a2bccc; stroke:none;" d="M438 120L439 121L438 120M441 120L442 121L441 120M349 121L350 122L349 121M380 121L380 124L381 124L380 121M393 121L394 122L393 121M396 121L395 123L396 121z"/>
<path style="fill:#607b8b; stroke:none;" d="M438 121L440 127L441 127L438 121z"/>
<path style="fill:#a2bccc; stroke:none;" d="M456.333 121.667L456.667 122.333L456.333 121.667M351.667 122.333L352.333 122.667L351.667 122.333M377.333 122.667L377.667 123.333L377.333 122.667z"/>
<path style="fill:#607b8b; stroke:none;" d="M396 122L397 123L396 122z"/>
<path style="fill:#a2bccc; stroke:none;" d="M439 122L440 123L439 122M442.333 122.667L442.667 123.333L442.333 122.667M354 123L355 124L354 123M392 123L393 124L392 123z"/>
<path style="fill:#607b8b; stroke:none;" d="M395 123L396 124L395 123z"/>
<path style="fill:#a2bccc; stroke:none;" d="M455.333 123.667L455.667 124.333L455.333 123.667M356 124L357 125L356 124M378 124L378 127L379 127L378 124M381 124L381 127L382 127L381 124M391 124L392 125L391 124M394 124L395 125L394 124M440 124L441 125L440 124M443.333 124.667L443.667 125.333L443.333 124.667M78 125L78 126L85 126L78 125M120 125L120 126L127 126L120 125M313 125L313 126L321 126L313 125M358.667 125.333L359.333 125.667L358.667 125.333z"/>
<path style="fill:#607b8b; stroke:none;" d="M394 125L395 126L394 125z"/>
<path style="fill:#a2bccc; stroke:none;" d="M454.333 125.667L454.667 126.333L454.333 125.667M73 126L74 127L73 126z"/>
<path style="fill:#607b8b; stroke:none;" d="M74 126L75 127L74 126z"/>
<path style="fill:#042c46; stroke:none;" d="M88 152L88 154C82.61 155.961 77.9974 156.712 75 151L65 151C66.227 173.412 107.425 164.562 96.821 146.188C92.5966 138.868 81.2951 141.419 76 135L97 137C96.092 124.964 77.2674 122.139 69.2245 129.419C63.3368 134.749 64.9572 143.759 72.0154 147.03C76.9917 149.336 82.8319 150.01 88 152z"/>
<path style="fill:#607b8b; stroke:none;" d="M88 126L89 127L88 126z"/>
<path style="fill:#a2bccc; stroke:none;" d="M89 126L90 127L89 126M115 126L116 127L115 126z"/>
<path style="fill:#607b8b; stroke:none;" d="M116 126L117 127L116 126z"/>
<path style="fill:#042c46; stroke:none;" d="M141 149L131 149C123.185 171.307 104.974 132.906 123.996 134.662C130.378 135.251 133.241 140.999 141 141C138.945 118.187 105.002 122.595 105.002 145C105.002 167.379 138.971 172.06 141 149z"/>
<path style="fill:#607b8b; stroke:none;" d="M129.667 126.333L130.333 126.667L129.667 126.333z"/>
<path style="fill:#a2bccc; stroke:none;" d="M131 126L132 127L131 126z"/>
<path style="fill:#607b8b; stroke:none;" d="M148 126L148 164L149 164C149 153.089 152.211 136.036 148 126z"/>
<path style="fill:#042c46; stroke:none;" d="M149 126L149 164L159 164L159 150L175 150L175 164L185 164L185 126L175 126L175 140L159 140L159 126L149 126z"/>
<path style="fill:#607b8b; stroke:none;" d="M159 126L159 140L160 140L159 126z"/>
<path style="fill:#a2bccc; stroke:none;" d="M160 126L160 140L161 140L160 126M173 126L173 140L174 140L173 126z"/>
<path style="fill:#607b8b; stroke:none;" d="M174 126L174 140L175 140L174 126M185 126L185 164L186 164C186 153.089 189.211 136.036 185 126z"/>
<path style="fill:#a2bccc; stroke:none;" d="M193 126L193 164L194 164C194 153.089 197.211 136.036 193 126z"/>
<path style="fill:#607b8b; stroke:none;" d="M194 126L194 164L195 164C195 153.089 198.211 136.036 194 126z"/>
<path style="fill:#042c46; stroke:none;" d="M195 126L195 164L226 164L226 155L205 155L205 149L223 149L223 140L205 140L205 135L226 135L226 126L195 126z"/>
<path style="fill:#607b8b; stroke:none;" d="M226 126L226 135L227 135L226 126z"/>
<path style="fill:#a2bccc; stroke:none;" d="M233 126L233 164L234 164C234 153.089 237.211 136.036 233 126z"/>
<path style="fill:#042c46; stroke:none;" d="M234 126L234 164C242.783 164 254.113 165.628 261.957 160.772C271.752 154.707 271.752 135.293 261.957 129.228C254.113 124.372 242.783 126 234 126z"/>
<path style="fill:#607b8b; stroke:none;" d="M253.667 126.333L254.333 126.667L253.667 126.333z"/>
<path style="fill:#a2bccc; stroke:none;" d="M255.667 126.333L256.333 126.667L255.667 126.333z"/>
<path style="fill:#607b8b; stroke:none;" d="M277 126L277 164L278 164C278 153.089 281.211 136.036 277 126z"/>
<path style="fill:#042c46; stroke:none;" d="M278 126L278 164L288 164L288 126L278 126z"/>
<path style="fill:#607b8b; stroke:none;" d="M288 126L288 164L289 164C289 153.089 292.211 136.036 288 126z"/>
<path style="fill:#a2bccc; stroke:none;" d="M289 126L289 164L290 164C290 153.089 293.211 136.036 289 126M308 126L309 127L308 126z"/>
<path style="fill:#607b8b; stroke:none;" d="M309.667 126.333L310.333 126.667L309.667 126.333z"/>
<path style="fill:#042c46; stroke:none;" d="M311 126.468C297.193 129.145 292.938 147.681 301.394 157.956C306.26 163.868 314.803 164.936 322 163.671C335.184 161.354 340.867 143.822 333.297 133.043C328.452 126.144 318.714 124.973 311 126.468z"/>
<path style="fill:#607b8b; stroke:none;" d="M323 126L324 127L323 126z"/>
<path style="fill:#a2bccc; stroke:none;" d="M324 126L325 127L324 126M361 126L362 127L361 126M390 126L391 127L390 126M393 126L392 128L393 126M441.333 126.667L441.667 127.333L441.333 126.667M444.333 126.667L444.667 127.333L444.333 126.667M70 127L71 128L70 127z"/>
<path style="fill:#607b8b; stroke:none;" d="M71 127L72 128L71 127M91 127L92 128L91 127z"/>
<path style="fill:#a2bccc; stroke:none;" d="M92 127L93 128L92 127z"/>
<path style="fill:#607b8b; stroke:none;" d="M113 127L114 128L113 127M132 127L133 128L132 127z"/>
<path style="fill:#a2bccc; stroke:none;" d="M133 127L134 128L133 127z"/>
<path style="fill:#607b8b; stroke:none;" d="M258 127L259 128L258 127z"/>
<path style="fill:#a2bccc; stroke:none;" d="M259 127L260 128L259 127z"/>
<path style="fill:#607b8b; stroke:none;" d="M306 127L307 128L306 127M326 127L327 128L326 127z"/>
<path style="fill:#a2bccc; stroke:none;" d="M327 127L328 128L327 127M363 127L364 128L363 127M379 127L379 130L380 130L379 127M382.333 127.667L382.667 128.333L382.333 127.667M389 127L390 128L389 127z"/>
<path style="fill:#607b8b; stroke:none;" d="M393 127L394 128L393 127z"/>
<path style="fill:#a2bccc; stroke:none;" d="M69 128L70 129L69 128z"/>
<path style="fill:#607b8b; stroke:none;" d="M93 128L94 129L93 128z"/>
<path style="fill:#a2bccc; stroke:none;" d="M111 128L112 129L111 128z"/>
<path style="fill:#607b8b; stroke:none;" d="M134 128L135 129L134 128z"/>
<path style="fill:#a2bccc; stroke:none;" d="M135 128L136 129L135 128z"/>
<path style="fill:#607b8b; stroke:none;" d="M261 128L262 129L261 128z"/>
<path style="fill:#a2bccc; stroke:none;" d="M304 128L305 129L304 128z"/>
<path style="fill:#607b8b; stroke:none;" d="M328 128L329 129L328 128z"/>
<path style="fill:#a2bccc; stroke:none;" d="M329 128L330 129L329 128M365.667 128.333L366.333 128.667L365.667 128.333z"/>
<path style="fill:#607b8b; stroke:none;" d="M392 128L393 129L392 128M441 128L442 129L441 128z"/>
<path style="fill:#a2bccc; stroke:none;" d="M445.333 128.667L445.667 129.333L445.333 128.667M453.333 128.667L453.667 129.333L453.333 128.667M67 129L66 131L67 129z"/>
<path style="fill:#607b8b; stroke:none;" d="M68 129L69 130L68 129M94 129L96 131L94 129z"/>
<path style="fill:#a2bccc; stroke:none;" d="M95 129L96 130L95 129M109 129L107 132L109 129z"/>
<path style="fill:#607b8b; stroke:none;" d="M110 129L111 130L110 129z"/>
<path style="fill:#a2bccc; stroke:none;" d="M136 129L137 130L136 129z"/>
<path style="fill:#607b8b; stroke:none;" d="M262 129L263 130L262 129z"/>
<path style="fill:#a2bccc; stroke:none;" d="M263 129L264 130L263 129M302 129L299 133L302 129z"/>
<path style="fill:#607b8b; stroke:none;" d="M303 129L304 130L303 129M330 129L331 130L330 129z"/>
<path style="fill:#a2bccc; stroke:none;" d="M368 129L369 130L368 129M388 129L389 130L388 129M391 129L390 131L391 129M442 129L443 130L442 129z"/>
<path style="fill:#607b8b; stroke:none;" d="M67 130L68 131L67 130M109 130L110 131L109 130M137 130L138 131L137 130M264 130L265 131L264 130M302 130L303 131L302 130M331 130L332 131L331 130z"/>
<path style="fill:#a2bccc; stroke:none;" d="M370 130L371 131L370 130M380 130L380 133L381 133L380 130M383.333 130.667L383.667 131.333L383.333 130.667z"/>
<path style="fill:#607b8b; stroke:none;" d="M391 130L392 131L391 130M442 130L443 131L442 130z"/>
<path style="fill:#a2bccc; stroke:none;" d="M452.333 130.667L452.667 131.333L452.333 130.667z"/>
<path style="fill:#607b8b; stroke:none;" d="M66 131L65 136L66 136L66 131M96 131L97 132L96 131M108 131L109 132L108 131z"/>
<path style="fill:#a2bccc; stroke:none;" d="M138 131L140 133L138 131M265 131L266 132L265 131z"/>
<path style="fill:#607b8b; stroke:none;" d="M301 131L302 132L301 131M332 131L333 132L332 131z"/>
<path style="fill:#a2bccc; stroke:none;" d="M372.667 131.333L373.333 131.667L372.667 131.333M387 131L388 132L387 131z"/>
<path style="fill:#607b8b; stroke:none;" d="M390 131L391 132L390 131z"/>
<path style="fill:#a2bccc; stroke:none;" d="M443 131L444 132L443 131M446 131L447 132L446 131M65 132L66 133L65 132M97 132L98 133L97 132z"/>
<path style="fill:#607b8b; stroke:none;" d="M107 132L108 133L107 132M138 132L139 133L138 132z"/>
<path style="fill:#a2bccc; stroke:none;" d="M266 132L268 134L266 132z"/>
<path style="fill:#607b8b; stroke:none;" d="M300 132L301 133L300 132M333 132L334 133L333 132z"/>
<path style="fill:#a2bccc; stroke:none;" d="M375 132L376 133L375 132M386 132L387 133L386 132M389 132L390 133L389 132z"/>
<path style="fill:#607b8b; stroke:none;" d="M443 132L445 138L446 138L443 132z"/>
<path style="fill:#a2bccc; stroke:none;" d="M451 132L451 135L452 135L451 132z"/>
<path style="fill:#607b8b; stroke:none;" d="M79.6667 133.333L80.3333 133.667L79.6667 133.333z"/>
<path style="fill:#a2bccc; stroke:none;" d="M81.6667 133.333L82.3333 133.667L81.6667 133.333z"/>
<path style="fill:#607b8b; stroke:none;" d="M83.6667 133.333L84.3333 133.667L83.6667 133.333M97 133L97 137L98 137L97 133z"/>
<path style="fill:#a2bccc; stroke:none;" d="M106 133L105 136L106 136L106 133z"/>
<path style="fill:#607b8b; stroke:none;" d="M139 133L140 134L139 133M266 133L267 134L266 133M299 133L298 137L299 137L299 133z"/>
<path style="fill:#a2bccc; stroke:none;" d="M334 133L335 136L336 136L334 133M377 133L378 134L377 133M381 133L379 134L379 135L381 133M384 133L384 135L386 135L384 133z"/>
<path style="fill:#607b8b; stroke:none;" d="M389 133L390 134L389 133z"/>
<path style="fill:#a2bccc; stroke:none;" d="M444 133L445 134L444 133M447.333 133.667L447.667 134.333L447.333 133.667M64 134L64 141L65 141L64 134z"/>
<path style="fill:#607b8b; stroke:none;" d="M77 134L77 138L78 138L77 134z"/>
<path style="fill:#a2bccc; stroke:none;" d="M85 134L86 135L85 134z"/>
<path style="fill:#607b8b; stroke:none;" d="M106 134L107 135L106 134M121.667 134.333L122.333 134.667L121.667 134.333z"/>
<path style="fill:#a2bccc; stroke:none;" d="M123 134L124 135L123 134z"/>
<path style="fill:#607b8b; stroke:none;" d="M124.667 134.333L125.333 134.667L124.667 134.333z"/>
<path style="fill:#a2bccc; stroke:none;" d="M140 134L141 135L140 134z"/>
<path style="fill:#607b8b; stroke:none;" d="M267.333 134.667L267.667 135.333L267.333 134.667z"/>
<path style="fill:#a2bccc; stroke:none;" d="M298 134L299 135L298 134z"/>
<path style="fill:#607b8b; stroke:none;" d="M314.667 134.333L315.333 134.667L314.667 134.333z"/>
<path style="fill:#a2bccc; stroke:none;" d="M316.667 134.333L317.333 134.667L316.667 134.333z"/>
<path style="fill:#607b8b; stroke:none;" d="M318.667 134.333L319.333 134.667L318.667 134.333M334 134L335 135L334 134z"/>
<path style="fill:#a2bccc; stroke:none;" d="M370 134L367 138L370 134z"/>
<path style="fill:#042c46; stroke:none;" d="M371 134C361.009 147.257 342.745 160.876 338 177C352.306 167.537 371.116 152.022 381 138L371 134z"/>
<path style="fill:#607b8b; stroke:none;" d="M372 134L373 135L372 134z"/>
<path style="fill:#a2bccc; stroke:none;" d="M388 134L387 136L388 134M77.3333 135.667L77.6667 136.333L77.3333 135.667M86 135C88.6145 139.033 93.614 138 98 138L98 137L86 135M98.3333 135.667L98.6667 136.333L98.3333 135.667M119 135L120 136L119 135M127 135L128 136L127 135z"/>
<path style="fill:#607b8b; stroke:none;" d="M140.333 135.667L140.667 136.333L140.333 135.667M205 135L205 140L206 140L205 135z"/>
<path style="fill:#a2bccc; stroke:none;" d="M206 135L206 140L207 140L206 135z"/>
<path style="fill:#607b8b; stroke:none;" d="M245 135L245 155L246 155L245 135z"/>
<path style="fill:#fffffd; stroke:none;" d="M246 135L246 155C260.574 154.648 260.574 135.352 246 135z"/>
<path style="fill:#a2bccc; stroke:none;" d="M252 135L253 136L252 135z"/>
<path style="fill:#607b8b; stroke:none;" d="M253 135L254 136L253 135z"/>
<path style="fill:#a2bccc; stroke:none;" d="M268.333 135.667L268.667 136.333L268.333 135.667M312 135L310 138L312 135z"/>
<path style="fill:#fffffd; stroke:none;" d="M313.133 136.029C304.525 140.93 310.299 160.198 320.772 153.821C328.233 149.278 323.605 130.066 313.133 136.029z"/>
<path style="fill:#a2bccc; stroke:none;" d="M320 135L321 136L320 135z"/>
<path style="fill:#607b8b; stroke:none;" d="M321 135L322 136L321 135M374 135L375 136L374 135z"/>
<path style="fill:#a2bccc; stroke:none;" d="M375 135L376 136L375 135z"/>
<path style="fill:#607b8b; stroke:none;" d="M388 135L389 136L388 135z"/>
<path style="fill:#a2bccc; stroke:none;" d="M445 135L446 136L445 135M448.333 135.667L448.667 136.333L448.333 135.667M450.333 135.667L450.667 136.333L450.333 135.667z"/>
<path style="fill:#607b8b; stroke:none;" d="M87 136L88 137L87 136M105.333 136.667L105.667 137.333L105.333 136.667z"/>
<path style="fill:#a2bccc; stroke:none;" d="M118 136L119 137L118 136M128 136L129 137L128 136M141 136L141 140L142 140L141 136M254 136L256 140L257 140L254 136z"/>
<path style="fill:#607b8b; stroke:none;" d="M255 136L256 137L255 136z"/>
<path style="fill:#a2bccc; stroke:none;" d="M297.333 136.667L297.667 137.333L297.333 136.667z"/>
<path style="fill:#607b8b; stroke:none;" d="M310 136L311 137L310 136z"/>
<path style="fill:#a2bccc; stroke:none;" d="M322 136L323 137L322 136z"/>
<path style="fill:#607b8b; stroke:none;" d="M335.333 136.667L335.667 137.333L335.333 136.667M369 136L370 137L369 136M376 136L377 137L376 136z"/>
<path style="fill:#a2bccc; stroke:none;" d="M377 136L378 137L377 136z"/>
<path style="fill:#607b8b; stroke:none;" d="M387 136L388 137L387 136z"/>
<path style="fill:#a2bccc; stroke:none;" d="M104 137L104 140L105 140L104 137M117.333 137.667L117.667 138.333L117.333 137.667z"/>
<path style="fill:#607b8b; stroke:none;" d="M129 137L130 138L129 137M256 137L257 138L256 137M268.333 137.667L268.667 138.333L268.333 137.667M323 137L324 140L325 140L323 137z"/>
<path style="fill:#a2bccc; stroke:none;" d="M336.333 137.667L336.667 138.333L336.333 137.667z"/>
<path style="fill:#607b8b; stroke:none;" d="M368 137L369 138L368 137M379 137L380 138L379 137z"/>
<path style="fill:#a2bccc; stroke:none;" d="M393 137L393 138L398 138L393 137z"/>
<path style="fill:#607b8b; stroke:none;" d="M398 137L398 138L404 138L398 137z"/>
<path style="fill:#a2bccc; stroke:none;" d="M446.333 137.667L446.667 138.333L446.333 137.667M449 137L450 138L449 137z"/>
<path style="fill:#607b8b; stroke:none;" d="M78 138L79 139L78 138z"/>
<path style="fill:#a2bccc; stroke:none;" d="M79 138L80 139L79 138z"/>
<path style="fill:#607b8b; stroke:none;" d="M116.333 138.667L116.667 139.333L116.333 138.667z"/>
<path style="fill:#a2bccc; stroke:none;" d="M129.333 138.667L129.667 139.333L129.333 138.667M269 138L269 141L270 141L269 138z"/>
<path style="fill:#607b8b; stroke:none;" d="M297 138L297 141L298 141L297 138M309 138L310 139L309 138z"/>
<path style="fill:#a2bccc; stroke:none;" d="M323 138L324 139L323 138z"/>
<path style="fill:#607b8b; stroke:none;" d="M367 138L368 139L367 138M381 138L379 141L381 138z"/>
<path style="fill:#a2bccc; stroke:none;" d="M382 138L383 139L382 138M410 138L410 139L415 139L410 138z"/>
<path style="fill:#607b8b; stroke:none;" d="M415 138L415 139L421 139L415 138M65 139L66 143L67 143L65 139M82 139L83 140L82 139z"/>
<path style="fill:#a2bccc; stroke:none;" d="M83.6667 139.333L84.3333 139.667L83.6667 139.333z"/>
<path style="fill:#607b8b; stroke:none;" d="M130.333 139.667L130.667 140.333L130.333 139.667M257.333 139.667L257.667 140.333L257.333 139.667z"/>
<path style="fill:#a2bccc; stroke:none;" d="M296 139L296 151L297 151L296 139M309.333 139.667L309.667 140.333L309.333 139.667z"/>
<path style="fill:#607b8b; stroke:none;" d="M336 139L336 151L337 151L336 139M366 139L367 140L366 139z"/>
<path style="fill:#a2bccc; stroke:none;" d="M381 139L382 140L381 139M382 143L387 140L382 143M427 139L427 140L432 140L427 139z"/>
<path style="fill:#607b8b; stroke:none;" d="M432 139L432 140L437 140L432 139M446 139L447 140L446 139M86.6667 140.333L87.3333 140.667L86.6667 140.333z"/>
<path style="fill:#a2bccc; stroke:none;" d="M88 140L89 141L88 140z"/>
<path style="fill:#607b8b; stroke:none;" d="M104 140L104 150L105 150L104 140z"/>
<path style="fill:#a2bccc; stroke:none;" d="M116 140L116 150L117 150L116 140z"/>
<path style="fill:#607b8b; stroke:none;" d="M141 140L142 141L141 140M223 140L223 149L224 149L223 140M308 140L308 150L309 150L308 140z"/>
<path style="fill:#a2bccc; stroke:none;" d="M324 140L324 150L325 150L324 140M365 140L366 141L365 140M380 140L381 141L380 140z"/>
<path style="fill:#1f9bf9; stroke:none;" d="M331 195L369 177.781L442 144C430.652 139.238 412.317 141.5 400 140.961C395.094 140.746 389.749 138.889 385 140.938C374.083 145.648 363.802 158.909 355 166.831C345.706 175.196 334.447 182.404 331 195z"/>
<path style="fill:#a2bccc; stroke:none;" d="M395 140L395 141L403 141L395 140M443 140L443 141L448 141L443 140z"/>
<path style="fill:#607b8b; stroke:none;" d="M90 141L91 142L90 141z"/>
<path style="fill:#a2bccc; stroke:none;" d="M91 141L92 142L91 141M130 141L130 142L142 142L130 141M257 141L257 149L258 149L257 141z"/>
<path style="fill:#607b8b; stroke:none;" d="M269 141L269 149L270 149L269 141M325 141L325 149L326 149L325 141z"/>
<path style="fill:#a2bccc; stroke:none;" d="M337 141L337 149L338 149L337 141M364 141L362 144L364 141z"/>
<path style="fill:#607b8b; stroke:none;" d="M378 141L379 142L378 141z"/>
<path style="fill:#a2bccc; stroke:none;" d="M412 141L412 142L420 142L412 141M65 142L66 143L65 142z"/>
<path style="fill:#607b8b; stroke:none;" d="M93 142L94 143L93 142z"/>
<path style="fill:#a2bccc; stroke:none;" d="M103 142L103 148L104 148L103 142z"/>
<path style="fill:#607b8b; stroke:none;" d="M364 142L365 143L364 142M377 142L378 143L377 142z"/>
<path style="fill:#a2bccc; stroke:none;" d="M429 142L429 143L437 143L429 142M66 143L67 144L66 143z"/>
<path style="fill:#607b8b; stroke:none;" d="M94 143L95 144L94 143z"/>
<path style="fill:#a2bccc; stroke:none;" d="M95 143L96 144L95 143z"/>
<path style="fill:#607b8b; stroke:none;" d="M115 143L115 147L116 147L115 143M363 143L364 144L363 143z"/>
<path style="fill:#a2bccc; stroke:none;" d="M376 143L377 144L376 143M442 143L443 144L442 143z"/>
<path style="fill:#607b8b; stroke:none;" d="M67 144L68 145L67 144z"/>
<path style="fill:#a2bccc; stroke:none;" d="M96 144L97 145L96 144z"/>
<path style="fill:#607b8b; stroke:none;" d="M362 144L363 145L362 144z"/>
<path style="fill:#a2bccc; stroke:none;" d="M375 144L376 145L375 144M379 144L380 145L379 144M440 144L441 145L440 144M68 145L69 146L68 145M97 145L99 147L97 145z"/>
<path style="fill:#607b8b; stroke:none;" d="M361 145L362 146L361 145z"/>
<path style="fill:#a2bccc; stroke:none;" d="M374 145L375 146L374 145M378 145L379 146L378 145M438 145L439 146L438 145M69 146L70 147L69 146z"/>
<path style="fill:#607b8b; stroke:none;" d="M70 146L71 147L70 146M97 146L98 147L97 146M360 146L361 147L360 146z"/>
<path style="fill:#a2bccc; stroke:none;" d="M373 146L374 147L373 146M377 146L378 147L377 146M436 146L437 147L436 146M71 147L72 148L71 147z"/>
<path style="fill:#607b8b; stroke:none;" d="M72 147L73 148L72 147M98 147L98 156L99 156L98 147z"/>
<path style="fill:#a2bccc; stroke:none;" d="M359 147L360 148L359 147z"/>
<path style="fill:#607b8b; stroke:none;" d="M371 147L369 150L371 147z"/>
<path style="fill:#a2bccc; stroke:none;" d="M372 147L373 148L372 147M376 147L377 148L376 147M434 147L435 148L434 147M74.6667 148.333L75.3333 148.667L74.6667 148.333z"/>
<path style="fill:#607b8b; stroke:none;" d="M76 148L77 149L76 148z"/>
<path style="fill:#a2bccc; stroke:none;" d="M131 148L131 149L141 149L131 148M358 148L356 151L358 148M371 148L372 149L371 148M375 148L376 149L375 148M431.667 148.333L432.333 148.667L431.667 148.333M79 149L80 150L79 149z"/>
<path style="fill:#607b8b; stroke:none;" d="M80.6667 149.333L81.3333 149.667L80.6667 149.333z"/>
<path style="fill:#a2bccc; stroke:none;" d="M99 149L99 155L100 155L99 149M130 149L131 150L130 149z"/>
<path style="fill:#607b8b; stroke:none;" d="M141.333 149.667L141.667 150.333L141.333 149.667M205 149L205 155L206 155L205 149z"/>
<path style="fill:#a2bccc; stroke:none;" d="M206 149L206 155L207 155L206 149z"/>
<path style="fill:#607b8b; stroke:none;" d="M257.333 149.667L257.667 150.333L257.333 149.667z"/>
<path style="fill:#a2bccc; stroke:none;" d="M269 149L269 152L270 152L269 149z"/>
<path style="fill:#607b8b; stroke:none;" d="M297 149L297 152L298 152L297 149z"/>
<path style="fill:#a2bccc; stroke:none;" d="M309.333 149.667L309.667 150.333L309.333 149.667z"/>
<path style="fill:#607b8b; stroke:none;" d="M358 149L359 150L358 149z"/>
<path style="fill:#a2bccc; stroke:none;" d="M370 149L371 150L370 149M374 149L375 150L374 149M429 149L430 150L429 149M83 150L84 151L83 150z"/>
<path style="fill:#607b8b; stroke:none;" d="M84 150L85 151L84 150z"/>
<path style="fill:#a2bccc; stroke:none;" d="M104 150L104 153L105 153L104 150z"/>
<path style="fill:#607b8b; stroke:none;" d="M116.333 150.667L116.667 151.333L116.333 150.667M130.333 150.667L130.667 151.333L130.333 150.667M159 150L159 164L160 164L159 150z"/>
<path style="fill:#a2bccc; stroke:none;" d="M160 150L160 164L161 164L160 150M173 150L173 164L174 164L173 150z"/>
<path style="fill:#607b8b; stroke:none;" d="M174 150L174 164L175 164L174 150z"/>
<path style="fill:#a2bccc; stroke:none;" d="M256 150L254 154L256 150z"/>
<path style="fill:#607b8b; stroke:none;" d="M324 150L323 153L324 150M357 150L358 151L357 150M368 150L369 151L368 150z"/>
<path style="fill:#a2bccc; stroke:none;" d="M373 150L374 151L373 150M427 150L428 151L427 150M63 151L64 152L63 151z"/>
<path style="fill:#607b8b; stroke:none;" d="M64 151L64 155L65 155L64 151z"/>
<path style="fill:#a2bccc; stroke:none;" d="M75 151L76 152L75 151M85 151L86 154L87 154L85 151z"/>
<path style="fill:#607b8b; stroke:none;" d="M86 151L87 152L86 151z"/>
<path style="fill:#a2bccc; stroke:none;" d="M117.333 151.667L117.667 152.333L117.333 151.667M141 151L141 154L142 154L141 151z"/>
<path style="fill:#607b8b; stroke:none;" d="M268.333 151.667L268.667 152.333L268.333 151.667M309 151L310 152L309 151z"/>
<path style="fill:#a2bccc; stroke:none;" d="M323 151L324 152L323 151M336.333 151.667L336.667 152.333L336.333 151.667z"/>
<path style="fill:#607b8b; stroke:none;" d="M356 151L357 152L356 151M367 151L368 152L367 151z"/>
<path style="fill:#a2bccc; stroke:none;" d="M372 151L373 152L372 151M425 151L426 152L425 151z"/>
<path style="fill:#607b8b; stroke:none;" d="M75 152L77 155L75 152M87.3333 152.667L87.6667 153.333L87.3333 152.667M105.333 152.667L105.667 153.333L105.333 152.667z"/>
<path style="fill:#a2bccc; stroke:none;" d="M129 152L127 155L129 152z"/>
<path style="fill:#607b8b; stroke:none;" d="M256 152L257 153L256 152z"/>
<path style="fill:#a2bccc; stroke:none;" d="M297.333 152.667L297.667 153.333L297.333 152.667M310 152L312 154L310 152z"/>
<path style="fill:#607b8b; stroke:none;" d="M335.333 152.667L335.667 153.333L335.333 152.667M355 152L356 153L355 152z"/>
<path style="fill:#a2bccc; stroke:none;" d="M366 152L367 153L366 152M423 152L424 153L423 152M76 153L77 154L76 153M118 153L119 154L118 153z"/>
<path style="fill:#607b8b; stroke:none;" d="M129 153L130 154L129 153M140.333 153.667L140.667 154.333L140.333 153.667M255 153L256 154L255 153z"/>
<path style="fill:#a2bccc; stroke:none;" d="M268.333 153.667L268.667 154.333L268.333 153.667z"/>
<path style="fill:#607b8b; stroke:none;" d="M298 153L304 161L298 153M310 153L311 154L310 153z"/>
<path style="fill:#a2bccc; stroke:none;" d="M322 153L323 154L322 153M354 153L355 154L354 153M365 153L366 154L365 153M369 153L370 154L369 153M421 153L422 154L421 153M77 154L78 155L77 154z"/>
<path style="fill:#607b8b; stroke:none;" d="M86 154L87 155L86 154z"/>
<path style="fill:#a2bccc; stroke:none;" d="M105 154L107 157L105 154M119 154L120 155L119 154z"/>
<path style="fill:#607b8b; stroke:none;" d="M128 154L129 155L128 154z"/>
<path style="fill:#a2bccc; stroke:none;" d="M252 154L253 155L252 154z"/>
<path style="fill:#607b8b; stroke:none;" d="M253 154L254 155L253 154M267 154L266 157L267 154z"/>
<path style="fill:#a2bccc; stroke:none;" d="M312 154L313 155L312 154M320 154L321 155L320 154z"/>
<path style="fill:#607b8b; stroke:none;" d="M321 154L322 155L321 154z"/>
<path style="fill:#a2bccc; stroke:none;" d="M335 154L334 157L335 154M353 154L350 158L353 154M364 154L365 155L364 154M368 154L369 155L368 154M419 154L420 155L419 154M64 155L69 162L64 155z"/>
<path style="fill:#607b8b; stroke:none;" d="M78.6667 155.333L79.3333 155.667L78.6667 155.333z"/>
<path style="fill:#a2bccc; stroke:none;" d="M80 155L80 156L83 156L80 155z"/>
<path style="fill:#607b8b; stroke:none;" d="M83.6667 155.333L84.3333 155.667L83.6667 155.333M106 155L107 156L106 155M121.667 155.333L122.333 155.667L121.667 155.333z"/>
<path style="fill:#a2bccc; stroke:none;" d="M123 155L124 156L123 155z"/>
<path style="fill:#607b8b; stroke:none;" d="M124.667 155.333L125.333 155.667L124.667 155.333z"/>
<path style="fill:#a2bccc; stroke:none;" d="M140 155L139 158L140 155z"/>
<path style="fill:#607b8b; stroke:none;" d="M226 155L226 164L227 164L226 155z"/>
<path style="fill:#a2bccc; stroke:none;" d="M227 155L227 164L228 164L227 155M298 155L299 156L298 155z"/>
<path style="fill:#607b8b; stroke:none;" d="M314.667 155.333L315.333 155.667L314.667 155.333z"/>
<path style="fill:#a2bccc; stroke:none;" d="M316.667 155.333L317.333 155.667L316.667 155.333z"/>
<path style="fill:#607b8b; stroke:none;" d="M318.667 155.333L319.333 155.667L318.667 155.333M334 155L335 156L334 155M353 155L354 156L353 155M362 155L360 158L362 155z"/>
<path style="fill:#a2bccc; stroke:none;" d="M363 155L364 156L363 155M367 155L368 156L367 155M416.667 155.333L417.333 155.667L416.667 155.333z"/>
<path style="fill:#607b8b; stroke:none;" d="M65 156L66 157L65 156z"/>
<path style="fill:#a2bccc; stroke:none;" d="M98 156L99 157L98 156z"/>
<path style="fill:#607b8b; stroke:none;" d="M139 156L140 157L139 156z"/>
<path style="fill:#a2bccc; stroke:none;" d="M267 156L268 157L267 156z"/>
<path style="fill:#607b8b; stroke:none;" d="M352 156L353 157L352 156z"/>
<path style="fill:#a2bccc; stroke:none;" d="M362 156L363 157L362 156M366 156L367 157L366 156M414 156L415 157L414 156z"/>
<path style="fill:#607b8b; stroke:none;" d="M97 157L98 158L97 157M107 157L111 161L107 157z"/>
<path style="fill:#a2bccc; stroke:none;" d="M266 157L267 158L266 157M299 157L300 158L299 157z"/>
<path style="fill:#607b8b; stroke:none;" d="M333 157L334 158L333 157M351 157L352 158L351 157z"/>
<path style="fill:#a2bccc; stroke:none;" d="M361 157L362 158L361 157M365 157L366 158L365 157M412 157L413 158L412 157z"/>
<path style="fill:#607b8b; stroke:none;" d="M66 158L67 159L66 158z"/>
<path style="fill:#a2bccc; stroke:none;" d="M97 158L98 159L97 158M107 158L108 159L107 158z"/>
<path style="fill:#607b8b; stroke:none;" d="M138 158L139 159L138 158z"/>
<path style="fill:#a2bccc; stroke:none;" d="M265 158L266 159L265 158M300 158L301 159L300 158z"/>
<path style="fill:#607b8b; stroke:none;" d="M332 158L333 159L332 158M350 158L351 159L350 158M359 158L360 159L359 158z"/>
<path style="fill:#a2bccc; stroke:none;" d="M364 158L365 159L364 158M410 158L411 159L410 158z"/>
<path style="fill:#607b8b; stroke:none;" d="M67 159L68 160L67 159z"/>
<path style="fill:#a2bccc; stroke:none;" d="M96 159L97 160L96 159M108 159L109 160L108 159z"/>
<path style="fill:#607b8b; stroke:none;" d="M137 159L138 160L137 159M264 159L265 160L264 159z"/>
<path style="fill:#a2bccc; stroke:none;" d="M301 159L302 160L301 159z"/>
<path style="fill:#607b8b; stroke:none;" d="M331 159L332 160L331 159M349 159L350 160L349 159M358 159L359 160L358 159z"/>
<path style="fill:#a2bccc; stroke:none;" d="M363 159L364 160L363 159M408 159L409 160L408 159z"/>
<path style="fill:#607b8b; stroke:none;" d="M68 160L69 161L68 160M95 160L96 161L95 160z"/>
<path style="fill:#a2bccc; stroke:none;" d="M109 160L110 161L109 160z"/>
<path style="fill:#607b8b; stroke:none;" d="M136 160L137 161L136 160M262 160L263 161L262 160z"/>
<path style="fill:#a2bccc; stroke:none;" d="M263 160L264 161L263 160M302 160L303 161L302 160z"/>
<path style="fill:#607b8b; stroke:none;" d="M330 160L331 161L330 160z"/>
<path style="fill:#a2bccc; stroke:none;" d="M348 160L349 161L348 160z"/>
<path style="fill:#607b8b; stroke:none;" d="M357 160L358 161L357 160z"/>
<path style="fill:#a2bccc; stroke:none;" d="M406 160L407 161L406 160z"/>
<path style="fill:#607b8b; stroke:none;" d="M69 161L70 162L69 161M93 161L94 162L93 161z"/>
<path style="fill:#a2bccc; stroke:none;" d="M94 161L95 162L94 161M111 161L112 162L111 161M135 161L136 162L135 161z"/>
<path style="fill:#607b8b; stroke:none;" d="M261 161L262 162L261 161z"/>
<path style="fill:#a2bccc; stroke:none;" d="M304 161L305 162L304 161z"/>
<path style="fill:#607b8b; stroke:none;" d="M328 161L329 162L328 161z"/>
<path style="fill:#a2bccc; stroke:none;" d="M329 161L330 162L329 161M347 161L345 164L347 161M356 161L357 162L356 161M360 161L361 162L360 161M404 161L405 162L404 161M70 162L71 163L70 162z"/>
<path style="fill:#607b8b; stroke:none;" d="M71 162L72 163L71 162z"/>
<path style="fill:#a2bccc; stroke:none;" d="M92 162L93 163L92 162z"/>
<path style="fill:#607b8b; stroke:none;" d="M113 162L114 163L113 162M133 162L134 163L133 162M258 162L259 163L258 162z"/>
<path style="fill:#a2bccc; stroke:none;" d="M259 162L260 163L259 162M306 162L307 163L306 162z"/>
<path style="fill:#607b8b; stroke:none;" d="M326 162L327 163L326 162z"/>
<path style="fill:#a2bccc; stroke:none;" d="M327 162L328 163L327 162z"/>
<path style="fill:#607b8b; stroke:none;" d="M347 162L348 163L347 162z"/>
<path style="fill:#a2bccc; stroke:none;" d="M355 162L356 163L355 162M359 162L360 163L359 162M401.667 162.333L402.333 162.667L401.667 162.333M73 163L74 164L73 163z"/>
<path style="fill:#607b8b; stroke:none;" d="M74 163L75 164L74 163M89 163L90 164L89 163z"/>
<path style="fill:#a2bccc; stroke:none;" d="M90 163L91 164L90 163M115 163L116 164L115 163z"/>
<path style="fill:#607b8b; stroke:none;" d="M116 163L117 164L116 163M130 163L131 164L130 163z"/>
<path style="fill:#a2bccc; stroke:none;" d="M131 163L132 164L131 163z"/>
<path style="fill:#607b8b; stroke:none;" d="M253.667 163.333L254.333 163.667L253.667 163.333z"/>
<path style="fill:#a2bccc; stroke:none;" d="M255.667 163.333L256.333 163.667L255.667 163.333M308 163L309 164L308 163z"/>
<path style="fill:#607b8b; stroke:none;" d="M309.667 163.333L310.333 163.667L309.667 163.333M323 163L324 164L323 163z"/>
<path style="fill:#a2bccc; stroke:none;" d="M324 163L325 164L324 163z"/>
<path style="fill:#607b8b; stroke:none;" d="M346 163L347 164L346 163z"/>
<path style="fill:#a2bccc; stroke:none;" d="M354 163L355 164L354 163M358 163L359 164L358 163M399 163L400 164L399 163M78 164L78 165L86 165L78 164M120 164L120 165L127 165L120 164M313 164L313 165L321 165L313 164z"/>
<path style="fill:#607b8b; stroke:none;" d="M345 164L346 165L345 164M352 164L350 167L352 164z"/>
<path style="fill:#a2bccc; stroke:none;" d="M353 164L354 165L353 164M357 164L358 165L357 164M397 164L398 165L397 164z"/>
<path style="fill:#607b8b; stroke:none;" d="M344 165L345 166L344 165z"/>
<path style="fill:#a2bccc; stroke:none;" d="M352 165L353 166L352 165M356 165L357 166L356 165M395 165L396 166L395 165M343 166L344 167L343 166M351 166L352 167L351 166M355 166L356 167L355 166M393 166L394 167L393 166M342 167L343 168L342 167z"/>
<path style="fill:#607b8b; stroke:none;" d="M349 167L350 168L349 167z"/>
<path style="fill:#a2bccc; stroke:none;" d="M354 167L355 168L354 167M391 167L392 168L391 167M341 168L339 171L341 168z"/>
<path style="fill:#607b8b; stroke:none;" d="M348 168L349 169L348 168z"/>
<path style="fill:#a2bccc; stroke:none;" d="M353 168L354 169L353 168M389 168L390 169L389 168z"/>
<path style="fill:#607b8b; stroke:none;" d="M341 169L342 170L341 169M347 169L348 170L347 169z"/>
<path style="fill:#a2bccc; stroke:none;" d="M386.667 169.333L387.333 169.667L386.667 169.333z"/>
<path style="fill:#607b8b; stroke:none;" d="M340 170L341 171L340 170z"/>
<path style="fill:#a2bccc; stroke:none;" d="M346 170L347 171L346 170M350 170L351 171L350 170M384 170L385 171L384 170z"/>
<path style="fill:#607b8b; stroke:none;" d="M339.333 171.667L339.667 172.333L339.333 171.667z"/>
<path style="fill:#a2bccc; stroke:none;" d="M345 171L346 172L345 171M349 171L350 172L349 171M382 171L383 172L382 171M338 172L337 176L338 176L338 172M344 172L345 173L344 172M348 172L349 173L348 172M380 172L381 173L380 172z"/>
<path style="fill:#607b8b; stroke:none;" d="M342 173L340 176L342 173z"/>
<path style="fill:#a2bccc; stroke:none;" d="M343 173L344 174L343 173M347 173L348 174L347 173M378 173L379 174L378 173z"/>
<path style="fill:#607b8b; stroke:none;" d="M338 174L339 175L338 174z"/>
<path style="fill:#a2bccc; stroke:none;" d="M342 174L343 175L342 174M346 174L347 175L346 174M376 174L377 175L376 174M341 175L342 176L341 175M345 175L346 176L345 175M374 175L375 176L374 175z"/>
<path style="fill:#607b8b; stroke:none;" d="M337 176L337 179L339 178L339 177L337 176M339 176L340 177L339 176z"/>
<path style="fill:#a2bccc; stroke:none;" d="M344 176L345 177L344 176M371.667 176.333L372.333 176.667L371.667 176.333M336 177L336 180L337 180L336 177M343 177L344 178L343 177M369 177L370 178L369 177M367 178L368 179L367 178M329 183L332 183L333 183L334 179L329 183M340 179L341 180L340 179M365 179L366 180L365 179M339 180L340 181L339 180M363 180L364 181L363 180z"/>
<path style="fill:#1f9bf9; stroke:none;" d="M331 181C307.932 209.423 278.395 235.987 259 267L301 265L323.576 205L331 181z"/>
<path style="fill:#a2bccc; stroke:none;" d="M338 181L339 182L338 181M361 181L362 182L361 181M337 182L338 183L337 182M359 182L360 183L359 182M336 183L337 184L336 183M356.667 183.333L357.333 183.667L356.667 183.333M328 184L329 185L328 184M331 184L332 185L331 184M335 184L336 185L335 184M354 184L355 185L354 184M327 185L328 186L327 185M334 185L335 186L334 185M352 185L353 186L352 185M326 186L327 187L326 186M330.333 186.667L330.667 187.333L330.333 186.667M333.333 186.667L333.667 187.333L333.333 186.667M350 186L351 187L350 186M325 187L326 188L325 187M348 187L349 188L348 187M324 188L325 189L324 188M346 188L347 189L346 188M329.333 189.667L329.667 190.333L329.333 189.667M332.333 189.667L332.667 190.333L332.333 189.667M344 189L345 190L344 189M323 190L324 191L323 190M341.667 190.333L342.333 190.667L341.667 190.333M322 191L323 192L322 191M328.333 191.667L328.667 192.333L328.333 191.667M331.333 191.667L331.667 192.333L331.333 191.667M339 191L340 192L339 191M321 192L322 193L321 192M337 192L338 193L337 192M320 193L321 194L320 193M335 193L336 194L335 193M319 194L320 195L319 194M327.333 194.667L327.667 195.333L327.333 194.667M330 194L330 196L332 196L330 194M333 194L334 195L333 194M318 195L319 196L318 195M317 197L318 198L317 197M326 197L327 198L326 197M316 198L317 199L316 198M315 199L316 200L315 199M325.333 199.667L325.667 200.333L325.333 199.667M314 200L315 201L314 200M313 201L314 202L313 201M324.333 202.667L324.667 203.333L324.333 202.667M160 203L160 204L167 204L160 203M312 203L313 204L312 203M350 203L350 204L357 204L350 203M432 203L432 204L440 204L432 203M478 203L478 204L486 204L478 203M62 204L62 214L63 214L62 204z"/>
<path style="fill:#607b8b; stroke:none;" d="M63 204L63 214L64 214L63 204z"/>
<path style="fill:#042c46; stroke:none;" d="M64 204L64 214L76 214L76 242L87 242L87 214L99 214L99 204L64 204z"/>
<path style="fill:#607b8b; stroke:none;" d="M99 204L99 214L100 214L99 204z"/>
<path style="fill:#a2bccc; stroke:none;" d="M105 204L105 242L106 242C106 231.089 109.211 214.036 105 204z"/>
<path style="fill:#042c46; stroke:none;" d="M106 204L106 242L138 242L138 233L117 233L117 227L134 227L134 218L117 218L117 213L137 213L137 204L106 204z"/>
<path style="fill:#607b8b; stroke:none;" d="M137 204L137 213L138 213L137 204z"/>
<path style="fill:#a2bccc; stroke:none;" d="M138 204L138 213L139 213L138 204M155 204L156 205L155 204z"/>
<path style="fill:#607b8b; stroke:none;" d="M156 204L157 205L156 204z"/>
<path style="fill:#042c46; stroke:none;" d="M181 227L171 227C160.732 248.486 145.781 212.458 163 212.457C167.077 212.457 168.446 216.117 171.455 217.976C174.105 219.613 178.02 219 181 219C175.256 197.088 142.867 199.959 144.21 224C145.461 246.382 176.488 248.574 181 227z"/>
<path style="fill:#607b8b; stroke:none;" d="M169 204L170 205L169 204z"/>
<path style="fill:#a2bccc; stroke:none;" d="M170 204L171 205L170 204M187 204L187 242L188 242C188 231.089 191.211 214.036 187 204z"/>
<path style="fill:#607b8b; stroke:none;" d="M188 204L188 242L189 242C189 231.089 192.211 214.036 188 204z"/>
<path style="fill:#042c46; stroke:none;" d="M189 204L189 242L199 242L199 228L214 228L214 242L225 242L225 204L214 204L214 218L199 218L199 204L189 204z"/>
<path style="fill:#607b8b; stroke:none;" d="M199 204L199 218L200 218L199 204z"/>
<path style="fill:#a2bccc; stroke:none;" d="M200 204L200 218L201 218L200 204M213 204L213 218L214 218L213 204M225 204L225 242L226 242C226 231.089 229.211 214.036 225 204M233 204L233 242L234 242C234 231.089 237.211 214.036 233 204z"/>
<path style="fill:#042c46; stroke:none;" d="M234 204L234 242L244 242L244 224C253.731 230.874 256.939 241.99 270 242L270 204L261 204L261 223C250.56 215.316 248.367 204.002 234 204z"/>
<path style="fill:#607b8b; stroke:none;" d="M244 204L245 205L244 204M260 204L260 222L256 219L261 223L260 204M270 204L270 242L271 242C271 231.089 274.211 214.036 270 204z"/>
<path style="fill:#a2bccc; stroke:none;" d="M271 204L271 242L272 242C272 231.089 275.211 214.036 271 204M311 204L312 205L311 204M345 204L346 205L345 204z"/>
<path style="fill:#607b8b; stroke:none;" d="M346 204L347 205L346 204z"/>
<path style="fill:#042c46; stroke:none;" d="M347 204.529C333.873 207.564 329.734 225.689 337.649 235.895C342.561 242.229 352.667 243.166 360 241.471C373.127 238.436 377.266 220.311 369.351 210.105C364.439 203.771 354.333 202.834 347 204.529z"/>
<path style="fill:#607b8b; stroke:none;" d="M360 204L361 205L360 204z"/>
<path style="fill:#a2bccc; stroke:none;" d="M361 204L362 205L361 204M380 204L380 242L381 242C381 231.089 384.211 214.036 380 204z"/>
<path style="fill:#042c46; stroke:none;" d="M381 204L381 242L411 242L411 232L392 232L392 204L381 204z"/>
<path style="fill:#a2bccc; stroke:none;" d="M392 204L392 232L393 232L392 204M427.667 204.333L428.333 204.667L427.667 204.333z"/>
<path style="fill:#607b8b; stroke:none;" d="M429 204L430 205L429 204z"/>
<path style="fill:#042c46; stroke:none;" d="M430 204.468C416.8 207.027 412.211 224.581 419.653 234.981C424.54 241.812 434.239 243.178 442 241.481C455.465 238.539 460.225 220.403 451.606 210.055C446.526 203.956 437.374 203.039 430 204.468z"/>
<path style="fill:#607b8b; stroke:none;" d="M442 204L443 205L442 204z"/>
<path style="fill:#a2bccc; stroke:none;" d="M443.667 204.333L444.333 204.667L443.667 204.333M473 204L474 205L473 204z"/>
<path style="fill:#607b8b; stroke:none;" d="M474.667 204.333L475.333 204.667L474.667 204.333z"/>
<path style="fill:#042c46; stroke:none;" d="M495 238L500 242L500 221L482 221L482 228L490 228C480.415 247.174 462.318 213.291 482 212.417C487.903 212.155 493.337 216.999 500 217C499.121 203.909 481.039 200.608 471.004 206.14C462.581 210.783 460.875 221.426 463.044 230C464.087 234.125 466.269 237.715 470.015 239.91C473.341 241.859 477.242 242.065 481 241.985C486.152 241.875 490.323 239.918 495 238z"/>
<path style="fill:#607b8b; stroke:none;" d="M488 204L489 205L488 204z"/>
<path style="fill:#a2bccc; stroke:none;" d="M489.667 204.333L490.333 204.667L489.667 204.333z"/>
<path style="fill:#607b8b; stroke:none;" d="M505 204L507 206L505 204z"/>
<path style="fill:#042c46; stroke:none;" d="M506 204C512.826 218.429 521 225.296 521 242L531 242C531 225.476 539.254 218.259 546 204C535.948 204 531.272 205.663 528 216L525 216C521.107 205.715 516.296 204 506 204z"/>
<path style="fill:#607b8b; stroke:none;" d="M518 204L520 206L518 204z"/>
<path style="fill:#a2bccc; stroke:none;" d="M519 204L520 205L519 204M533 204L532 206L533 204M546 204L547 205L546 204M152 205L153 206L152 205z"/>
<path style="fill:#607b8b; stroke:none;" d="M153 205L154 206L153 205M172 205L173 206L172 205z"/>
<path style="fill:#a2bccc; stroke:none;" d="M173 205L174 206L173 205M245 205L246 206L245 205M310 205L311 206L310 205M323 205L324 206L323 205M342 205L343 206L342 205z"/>
<path style="fill:#607b8b; stroke:none;" d="M343 205L344 206L343 205M363 205L364 206L363 205z"/>
<path style="fill:#a2bccc; stroke:none;" d="M364 205L365 206L364 205M425 205L426 206L425 205z"/>
<path style="fill:#607b8b; stroke:none;" d="M445 205L446 206L445 205z"/>
<path style="fill:#a2bccc; stroke:none;" d="M446 205L447 206L446 205M471 205L472 206L471 205z"/>
<path style="fill:#607b8b; stroke:none;" d="M492 205L493 206L492 205z"/>
<path style="fill:#a2bccc; stroke:none;" d="M505 205L506 206L505 205z"/>
<path style="fill:#607b8b; stroke:none;" d="M533 205L534 206L533 205M545 205L546 206L545 205z"/>
<path style="fill:#a2bccc; stroke:none;" d="M150 206L151 207L150 206z"/>
<path style="fill:#607b8b; stroke:none;" d="M151 206L152 207L151 206M174 206L176 208L174 206z"/>
<path style="fill:#a2bccc; stroke:none;" d="M175 206L176 207L175 206M246 206L249 209L246 206M309 206L310 207L309 206M340 206L341 207L340 206z"/>
<path style="fill:#607b8b; stroke:none;" d="M341 206L342 207L341 206M365 206L366 207L365 206z"/>
<path style="fill:#a2bccc; stroke:none;" d="M366 206L367 207L366 206M423 206L424 207L423 206M448 206L449 207L448 206M469 206L470 207L469 206z"/>
<path style="fill:#607b8b; stroke:none;" d="M494 206L495 207L494 206z"/>
<path style="fill:#a2bccc; stroke:none;" d="M506 206L507 207L506 206M520 206L522 208L520 206z"/>
<path style="fill:#607b8b; stroke:none;" d="M532 206L533 207L532 206z"/>
<path style="fill:#a2bccc; stroke:none;" d="M545 206L546 207L545 206M149 207L150 208L149 207M176 207L177 208L176 207z"/>
<path style="fill:#607b8b; stroke:none;" d="M246 207L247 208L246 207z"/>
<path style="fill:#a2bccc; stroke:none;" d="M308 207L309 208L308 207M322.333 207.667L322.667 208.333L322.333 207.667M339 207L340 208L339 207M367 207L368 208L367 207z"/>
<path style="fill:#607b8b; stroke:none;" d="M422 207L423 208L422 207M449 207L453 211L449 207z"/>
<path style="fill:#a2bccc; stroke:none;" d="M450 207L451 208L450 207M467 207L464 211L467 207z"/>
<path style="fill:#607b8b; stroke:none;" d="M468 207L469 208L468 207M495 207L496 208L495 207z"/>
<path style="fill:#a2bccc; stroke:none;" d="M496 207L497 208L496 207z"/>
<path style="fill:#607b8b; stroke:none;" d="M507 207L509 209L507 207M520 207L521 208L520 207z"/>
<path style="fill:#a2bccc; stroke:none;" d="M531 207L529 211L530 211L531 207z"/>
<path style="fill:#607b8b; stroke:none;" d="M544 207L543 209L544 207z"/>
<path style="fill:#a2bccc; stroke:none;" d="M148 208L149 209L148 208M177 208L179 210L177 208z"/>
<path style="fill:#607b8b; stroke:none;" d="M247 208L248 209L247 208z"/>
<path style="fill:#a2bccc; stroke:none;" d="M307 208L308 209L307 208M338 208L339 209L338 208M368 208L369 209L368 208M420 208L419 210L420 208z"/>
<path style="fill:#607b8b; stroke:none;" d="M421 208L422 209L421 208z"/>
<path style="fill:#a2bccc; stroke:none;" d="M451 208L452 209L451 208z"/>
<path style="fill:#607b8b; stroke:none;" d="M467 208L468 209L467 208z"/>
<path style="fill:#a2bccc; stroke:none;" d="M497 208L498 209L497 208M507 208L508 209L507 208z"/>
<path style="fill:#607b8b; stroke:none;" d="M521 208L523 211L521 208M531 208L532 209L531 208z"/>
<path style="fill:#a2bccc; stroke:none;" d="M544 208L545 209L544 208M147 209L146 211L147 209z"/>
<path style="fill:#607b8b; stroke:none;" d="M177 209L178 210L177 209M248 209L249 210L248 209z"/>
<path style="fill:#a2bccc; stroke:none;" d="M337 209L338 210L337 209M369 209L370 210L369 209z"/>
<path style="fill:#607b8b; stroke:none;" d="M420 209L421 210L420 209z"/>
<path style="fill:#a2bccc; stroke:none;" d="M452 209L453 210L452 209z"/>
<path style="fill:#607b8b; stroke:none;" d="M466 209L467 210L466 209z"/>
<path style="fill:#a2bccc; stroke:none;" d="M498 209L500 211L498 209M508 209L509 210L508 209M522 209L523 210L522 209M543 209L544 210L543 209z"/>
<path style="fill:#607b8b; stroke:none;" d="M147 210L148 211L147 210M178 210L179 211L178 210M249 210L250 211L249 210z"/>
<path style="fill:#a2bccc; stroke:none;" d="M306 210L307 211L306 210M321.333 210.667L321.667 211.333L321.333 210.667M336 210L334 215L335 215L336 210M370 210L372 212L370 210z"/>
<path style="fill:#607b8b; stroke:none;" d="M419 210L420 211L419 210M465 210L466 211L465 210M498 210L499 211L498 210M509 210L511 212L509 210M530 210L531 211L530 210M542 210L541 212L542 210M146 211L147 212L146 211z"/>
<path style="fill:#a2bccc; stroke:none;" d="M179 211L180 214L181 214L179 211M250 211L251 212L250 211M305 211L306 212L305 211z"/>
<path style="fill:#607b8b; stroke:none;" d="M336 211L337 212L336 211M370 211L371 212L370 211z"/>
<path style="fill:#a2bccc; stroke:none;" d="M418 211L416 216L417 216L418 211M453 211L455 213L453 211z"/>
<path style="fill:#607b8b; stroke:none;" d="M464 211L463 215L464 215L464 211M499 211L500 212L499 211z"/>
<path style="fill:#a2bccc; stroke:none;" d="M509 211L510 212L509 211M523 211L525 213L523 211z"/>
<path style="fill:#607b8b; stroke:none;" d="M529 211L530 212L529 211z"/>
<path style="fill:#a2bccc; stroke:none;" d="M542 211L543 212L542 211M145 212L146 213L145 212z"/>
<path style="fill:#607b8b; stroke:none;" d="M160.667 212.333L161.333 212.667L160.667 212.333z"/>
<path style="fill:#a2bccc; stroke:none;" d="M162.667 212.333L163.333 212.667L162.667 212.333z"/>
<path style="fill:#607b8b; stroke:none;" d="M164.667 212.333L165.333 212.667L164.667 212.333M179 212L180 213L179 212z"/>
<path style="fill:#a2bccc; stroke:none;" d="M251 212L254 215L251 212M304 212L305 213L304 212M320.333 212.667L320.667 213.333L320.333 212.667z"/>
<path style="fill:#607b8b; stroke:none;" d="M351.667 212.333L352.333 212.667L351.667 212.333z"/>
<path style="fill:#a2bccc; stroke:none;" d="M353 212L354 213L353 212z"/>
<path style="fill:#607b8b; stroke:none;" d="M354.667 212.333L355.333 212.667L354.667 212.333M371.333 212.667L371.667 213.333L371.333 212.667M418 212L419 213L418 212M433.667 212.333L434.333 212.667L433.667 212.333z"/>
<path style="fill:#a2bccc; stroke:none;" d="M435.667 212.333L436.333 212.667L435.667 212.333z"/>
<path style="fill:#607b8b; stroke:none;" d="M437.667 212.333L438.333 212.667L437.667 212.333M453 212L454 213L453 212z"/>
<path style="fill:#a2bccc; stroke:none;" d="M463 212L464 213L463 212z"/>
<path style="fill:#607b8b; stroke:none;" d="M479.667 212.333L480.333 212.667L479.667 212.333z"/>
<path style="fill:#a2bccc; stroke:none;" d="M481.667 212.333L482.333 212.667L481.667 212.333z"/>
<path style="fill:#607b8b; stroke:none;" d="M483.667 212.333L484.333 212.667L483.667 212.333z"/>
<path style="fill:#a2bccc; stroke:none;" d="M500 212L501 213L500 212M510 212L511 213L510 212z"/>
<path style="fill:#607b8b; stroke:none;" d="M523 212L524 213L523 212z"/>
<path style="fill:#a2bccc; stroke:none;" d="M528 212L525 214L525 215L527 216L528 212M541 212L542 213L541 212M117 213L117 218L118 218L117 213z"/>
<path style="fill:#607b8b; stroke:none;" d="M145.333 213.667L145.667 214.333L145.333 213.667M158 213L156 217L157 217L158 213z"/>
<path style="fill:#a2bccc; stroke:none;" d="M159 213L160 214L159 213M166 213L167 214L166 213z"/>
<path style="fill:#607b8b; stroke:none;" d="M167 213L168 214L167 213M251 213L252 214L251 213z"/>
<path style="fill:#a2bccc; stroke:none;" d="M303 213L304 214L303 213z"/>
<path style="fill:#607b8b; stroke:none;" d="M335 213L336 214L335 213M348 213L346 216L348 213z"/>
<path style="fill:#a2bccc; stroke:none;" d="M349 213L350 214L349 213z"/>
<path style="fill:#fffffd; stroke:none;" d="M350.214 213.743C341.755 217.528 345.815 237.167 356.786 232.257C365.245 228.472 361.185 208.833 350.214 213.743z"/>
<path style="fill:#a2bccc; stroke:none;" d="M357 213L358 214L357 213z"/>
<path style="fill:#607b8b; stroke:none;" d="M358 213L359 214L358 213z"/>
<path style="fill:#a2bccc; stroke:none;" d="M372.333 213.667L372.667 214.333L372.333 213.667z"/>
<path style="fill:#607b8b; stroke:none;" d="M431 213L432 214L431 213z"/>
<path style="fill:#fffffd; stroke:none;" d="M432.228 214.028C424.09 218.954 429.437 238.114 439.852 231.972C447.254 227.607 442.767 207.648 432.228 214.028z"/>
<path style="fill:#607b8b; stroke:none;" d="M440 213L441 214L440 213M454.333 213.667L454.667 214.333L454.333 213.667M477 213L478 214L477 213z"/>
<path style="fill:#a2bccc; stroke:none;" d="M486 213L487 214L486 213z"/>
<path style="fill:#607b8b; stroke:none;" d="M487 213L488 214L487 213M500 213L500 217L501 217L500 213M511 213L513 215L511 213M524 213L525 214L524 213M528 213L529 214L528 213M540 213L539 215L540 213M75 214L75 242L76 242L75 214z"/>
<path style="fill:#a2bccc; stroke:none;" d="M87 214L87 242L88 242L87 214M144.333 214.667L144.667 215.333L144.333 214.667M158 214L159 215L158 214z"/>
<path style="fill:#607b8b; stroke:none;" d="M168 214L169 217L170 217L168 214M180 214L180 218L181 218L180 214M252 214L253 215L252 214z"/>
<path style="fill:#a2bccc; stroke:none;" d="M302 214L303 215L302 214z"/>
<path style="fill:#607b8b; stroke:none;" d="M359 214L361 216L359 214M417 214L418 215L417 214z"/>
<path style="fill:#a2bccc; stroke:none;" d="M430 214L431 215L430 214M441 214L442 215L441 214M455.333 214.667L455.667 215.333L455.333 214.667M462.333 214.667L462.667 215.333L462.333 214.667M476 214L477 215L476 214M488 214L489 215L488 214M511 214L512 215L511 214M540 214L541 215L540 214M157 215L158 216L157 215M168 215L169 216L168 215z"/>
<path style="fill:#607b8b; stroke:none;" d="M253 215L254 216L253 215z"/>
<path style="fill:#a2bccc; stroke:none;" d="M301 215L302 216L301 215M319.333 215.667L319.667 216.333L319.333 215.667z"/>
<path style="fill:#607b8b; stroke:none;" d="M334.333 215.667L334.667 216.333L334.333 215.667z"/>
<path style="fill:#a2bccc; stroke:none;" d="M347 215L348 216L347 215M359 215L360 216L359 215z"/>
<path style="fill:#607b8b; stroke:none;" d="M372.333 215.667L372.667 216.333L372.333 215.667z"/>
<path style="fill:#a2bccc; stroke:none;" d="M429 215L428 221L429 221L429 215M442 215L443 216L442 215M475 215L476 216L475 215z"/>
<path style="fill:#607b8b; stroke:none;" d="M489 215L490 216L489 215z"/>
<path style="fill:#a2bccc; stroke:none;" d="M501 215L489 216C490.931 218.645 502.77 219.695 501 215M512 215L513 216L512 215z"/>
<path style="fill:#607b8b; stroke:none;" d="M525 215L526 216L525 215M527 215L528 216L527 215z"/>
<path style="fill:#a2bccc; stroke:none;" d="M539 215L540 216L539 215z"/>
<path style="fill:#607b8b; stroke:none;" d="M144 216L144 220L145 220L144 216z"/>
<path style="fill:#a2bccc; stroke:none;" d="M181 216C178.458 219.921 173.513 219.662 170 217L169 217C171.739 221.224 177.43 220 182 220L181 216z"/>
<path style="fill:#607b8b; stroke:none;" d="M254 216L255 217L254 216z"/>
<path style="fill:#a2bccc; stroke:none;" d="M333 216L333 219L334 219L333 216M346.333 216.667L346.667 217.333L346.333 216.667M360.333 216.667L360.667 217.333L360.333 216.667M373 216L373 219L374 219L373 216z"/>
<path style="fill:#607b8b; stroke:none;" d="M416 216L416 220L417 220L416 216M428 216L429 217L428 216M443 216L444 217L443 216M455 216L455 220L456 220L455 216M462 216L462 219L463 219L462 216M474 216L475 217L474 216M513 216L515 218L513 216M538 216L537 218L538 216z"/>
<path style="fill:#a2bccc; stroke:none;" d="M156 217L156 221L157 221L156 217M255 217L256 218L255 217M300 217L301 218L300 217z"/>
<path style="fill:#607b8b; stroke:none;" d="M345.333 217.667L345.667 218.333L345.333 217.667M361.333 217.667L361.667 218.333L361.333 217.667z"/>
<path style="fill:#a2bccc; stroke:none;" d="M443 217L443 229L444 229L443 217M461 217L461 229L462 229L461 217M474.333 217.667L474.667 218.333L474.333 217.667M513 217L514 218L513 217M538 217L539 218L538 217z"/>
<path style="fill:#607b8b; stroke:none;" d="M134 218L134 227L135 227L134 218z"/>
<path style="fill:#a2bccc; stroke:none;" d="M135 218L135 227L136 227L135 218M143 218L143 228L144 228L143 218z"/>
<path style="fill:#607b8b; stroke:none;" d="M155 218L155 228L156 228L155 218M170 218L171 219L170 218z"/>
<path style="fill:#a2bccc; stroke:none;" d="M256 218L257 219L256 218M299 218L300 219L299 218M318 218L319 219L318 218M415 218L415 228L416 228L415 218z"/>
<path style="fill:#607b8b; stroke:none;" d="M444 218L444 228L445 228L444 218z"/>
<path style="fill:#a2bccc; stroke:none;" d="M456 218L456 228L457 228L456 218z"/>
<path style="fill:#607b8b; stroke:none;" d="M473 218L473 228L474 228L473 218z"/>
<path style="fill:#a2bccc; stroke:none;" d="M514 218L515 219L514 218M537 218L538 219L537 218M257 219L258 220L257 219M298 219L299 220L298 219z"/>
<path style="fill:#607b8b; stroke:none;" d="M333 219L333 227L334 227L333 219z"/>
<path style="fill:#a2bccc; stroke:none;" d="M345 219L345 227L346 227L345 219M361 219L361 227L362 227L361 219z"/>
<path style="fill:#607b8b; stroke:none;" d="M373 219L373 227L374 227L373 219M427 219L427 227L428 227L427 219M515 219L517 221L515 219M536 219L534 223L535 223L536 219z"/>
<path style="fill:#a2bccc; stroke:none;" d="M258 220L259 221L258 220M297 220L298 221L297 220M317.333 220.667L317.667 221.333L317.333 220.667M481 220L481 221L501 221L501 242C502.614 238.154 504.144 222.799 499.682 220.603C494.983 218.291 486.182 220 481 220M515 220L516 221L515 220M536 220L537 221L536 220M259 221L260 222L259 221M296 221L297 222L296 221z"/>
<path style="fill:#607b8b; stroke:none;" d="M481 221L481 228L482 228L481 221M500 221L500 242L501 242L500 221z"/>
<path style="fill:#a2bccc; stroke:none;" d="M516 221L517 222L516 221z"/>
<path style="fill:#607b8b; stroke:none;" d="M517 222L519 224L517 222z"/>
<path style="fill:#a2bccc; stroke:none;" d="M535 222L536 223L535 222M295 223L296 224L295 223M316.333 223.667L316.667 224.333L316.333 223.667M517 223L518 224L517 223M534 223L535 224L534 223z"/>
<path style="fill:#607b8b; stroke:none;" d="M244 224L244 242L245 242L246 224L244 224z"/>
<path style="fill:#a2bccc; stroke:none;" d="M294 224L295 225L294 224M518 224L519 225L518 224z"/>
<path style="fill:#607b8b; stroke:none;" d="M533 224L532 226L533 224z"/>
<path style="fill:#a2bccc; stroke:none;" d="M156 225L156 229L157 229L156 225M246 225L247 226L246 225M293 225L294 226L293 225M315.333 225.667L315.667 226.333L315.333 225.667M428 225L429 231L430 231L428 225z"/>
<path style="fill:#607b8b; stroke:none;" d="M519 225L520 242L521 242L519 225z"/>
<path style="fill:#a2bccc; stroke:none;" d="M533 225L534 226L533 225z"/>
<path style="fill:#607b8b; stroke:none;" d="M144 226L144 230L145 230L144 226z"/>
<path style="fill:#a2bccc; stroke:none;" d="M170 226L170 227L181 227L170 226z"/>
<path style="fill:#607b8b; stroke:none;" d="M247 226L248 227L247 226z"/>
<path style="fill:#a2bccc; stroke:none;" d="M292 226L293 227L292 226z"/>
<path style="fill:#607b8b; stroke:none;" d="M416 226L416 230L417 230L416 226M455 226L455 230L456 230L455 226z"/>
<path style="fill:#a2bccc; stroke:none;" d="M519 226L519 242L520 242L519 226M532 226L532 242L533 242L532 226M117 227L117 233L118 233L117 227z"/>
<path style="fill:#607b8b; stroke:none;" d="M170 227L169 231L170 231L170 227z"/>
<path style="fill:#a2bccc; stroke:none;" d="M181 227L181 231L182 231L181 227z"/>
<path style="fill:#607b8b; stroke:none;" d="M248 227L252 231L248 227z"/>
<path style="fill:#a2bccc; stroke:none;" d="M291 227L292 228L291 227M333 227L333 230L334 230L333 227z"/>
<path style="fill:#607b8b; stroke:none;" d="M345.333 227.667L345.667 228.333L345.333 227.667M361.333 227.667L361.667 228.333L361.333 227.667z"/>
<path style="fill:#a2bccc; stroke:none;" d="M373 227L373 230L374 230L373 227z"/>
<path style="fill:#607b8b; stroke:none;" d="M462 227L462 231L463 231L462 227z"/>
<path style="fill:#a2bccc; stroke:none;" d="M474.333 227.667L474.667 228.333L474.333 227.667z"/>
<path style="fill:#607b8b; stroke:none;" d="M531 227L531 242L532 242L531 227z"/>
<path style="fill:#a2bccc; stroke:none;" d="M169.333 228.667L169.667 229.333L169.333 228.667z"/>
<path style="fill:#607b8b; stroke:none;" d="M199 228L199 242L200 242L199 228z"/>
<path style="fill:#a2bccc; stroke:none;" d="M200 228L200 242L201 242L200 228M213 228L213 242L214 242L213 228M248 228L249 229L248 228M290 228L291 229L290 228M314.333 228.667L314.667 229.333L314.333 228.667M346 228L348 231L346 228M360 228L359 231L360 228M489 228L488 231L489 228z"/>
<path style="fill:#607b8b; stroke:none;" d="M156 229L159 233L156 229M180 229L180 232L181 232L180 229z"/>
<path style="fill:#a2bccc; stroke:none;" d="M249 229L250 230L249 229z"/>
<path style="fill:#607b8b; stroke:none;" d="M334.333 229.667L334.667 230.333L334.333 229.667M372.333 229.667L372.667 230.333L372.333 229.667M428 229L429 230L428 229M443 229L444 230L443 229M474 229L475 230L474 229z"/>
<path style="fill:#a2bccc; stroke:none;" d="M144.333 230.667L144.667 231.333L144.333 230.667M157 230L158 231L157 230M250 230L251 231L250 230M289 230L290 231L289 230z"/>
<path style="fill:#607b8b; stroke:none;" d="M346 230L347 231L346 230M360 230L361 231L360 230z"/>
<path style="fill:#a2bccc; stroke:none;" d="M416 230L418 235L419 235L416 230M442 230L443 231L442 230M455.333 230.667L455.667 231.333L455.333 230.667M475 230L476 231L475 230z"/>
<path style="fill:#607b8b; stroke:none;" d="M489 230L490 231L489 230M145.333 231.667L145.667 232.333L145.333 231.667z"/>
<path style="fill:#a2bccc; stroke:none;" d="M158 231L159 232L158 231M168 231L169 232L168 231M251 231L252 232L251 231M288 231L289 232L288 231M313 231L314 232L313 231M334 231L336 236L337 236L334 231z"/>
<path style="fill:#607b8b; stroke:none;" d="M347 231L348 232L347 231M359 231L360 232L359 231z"/>
<path style="fill:#a2bccc; stroke:none;" d="M372.333 231.667L372.667 232.333L372.333 231.667z"/>
<path style="fill:#607b8b; stroke:none;" d="M417 231L418 232L417 231z"/>
<path style="fill:#a2bccc; stroke:none;" d="M430 231L431 232L430 231M441 231L442 232L441 231z"/>
<path style="fill:#607b8b; stroke:none;" d="M454 231L453 234L454 231z"/>
<path style="fill:#a2bccc; stroke:none;" d="M462 231L464 236L465 236L462 231M476 231L477 232L476 231z"/>
<path style="fill:#607b8b; stroke:none;" d="M488 231L489 232L488 231z"/>
<path style="fill:#a2bccc; stroke:none;" d="M159 232L160 233L159 232M167 232L168 233L167 232M180.333 232.667L180.667 233.333L180.333 232.667M252 232L253 233L252 232M287 232L288 233L287 232z"/>
<path style="fill:#607b8b; stroke:none;" d="M335 232L336 233L335 232M348 232L349 233L348 232z"/>
<path style="fill:#a2bccc; stroke:none;" d="M349 232L350 233L349 232M357 232L358 233L357 232z"/>
<path style="fill:#607b8b; stroke:none;" d="M358 232L359 233L358 232M371 232L370 235L371 232M411 232L411 242L412 242L411 232z"/>
<path style="fill:#a2bccc; stroke:none;" d="M412 232L412 242L413 242L412 232z"/>
<path style="fill:#607b8b; stroke:none;" d="M431 232L432 233L431 232M440 232L441 233L440 232M463 232L464 233L463 232M477 232L478 233L477 232z"/>
<path style="fill:#a2bccc; stroke:none;" d="M486 232L487 233L486 232z"/>
<path style="fill:#607b8b; stroke:none;" d="M487 232L488 233L487 232z"/>
<path style="fill:#a2bccc; stroke:none;" d="M138 233L138 242L139 242L138 233M145 233L146 234L145 233z"/>
<path style="fill:#607b8b; stroke:none;" d="M160.667 233.333L161.333 233.667L160.667 233.333z"/>
<path style="fill:#a2bccc; stroke:none;" d="M162.667 233.333L163.333 233.667L162.667 233.333z"/>
<path style="fill:#607b8b; stroke:none;" d="M164.667 233.333L165.333 233.667L164.667 233.333M179 233L178 236L179 233M253 233L254 234L253 233z"/>
<path style="fill:#a2bccc; stroke:none;" d="M286 233L287 234L286 233M312.333 233.667L312.667 234.333L312.333 233.667z"/>
<path style="fill:#607b8b; stroke:none;" d="M351.667 233.333L352.333 233.667L351.667 233.333z"/>
<path style="fill:#a2bccc; stroke:none;" d="M353 233L354 234L353 233z"/>
<path style="fill:#607b8b; stroke:none;" d="M354.667 233.333L355.333 233.667L354.667 233.333M418 233L419 234L418 233M433.667 233.333L434.333 233.667L433.667 233.333z"/>
<path style="fill:#a2bccc; stroke:none;" d="M435.667 233.333L436.333 233.667L435.667 233.333z"/>
<path style="fill:#607b8b; stroke:none;" d="M437.667 233.333L438.333 233.667L437.667 233.333z"/>
<path style="fill:#a2bccc; stroke:none;" d="M454 233L455 234L454 233z"/>
<path style="fill:#607b8b; stroke:none;" d="M479.667 233.333L480.333 233.667L479.667 233.333z"/>
<path style="fill:#a2bccc; stroke:none;" d="M481.667 233.333L482.333 233.667L481.667 233.333z"/>
<path style="fill:#607b8b; stroke:none;" d="M483.667 233.333L484.333 233.667L483.667 233.333M146 234L148 236L146 234M254 234L255 235L254 234z"/>
<path style="fill:#a2bccc; stroke:none;" d="M285 234L286 235L285 234z"/>
<path style="fill:#607b8b; stroke:none;" d="M336 234L337 235L336 234z"/>
<path style="fill:#a2bccc; stroke:none;" d="M371 234L372 235L371 234M453 234L454 235L453 234z"/>
<path style="fill:#607b8b; stroke:none;" d="M464 234L465 235L464 234z"/>
<path style="fill:#a2bccc; stroke:none;" d="M146 235L147 236L146 235M179 235L180 236L179 235z"/>
<path style="fill:#607b8b; stroke:none;" d="M255 235L259 239L255 235z"/>
<path style="fill:#a2bccc; stroke:none;" d="M284 235L285 236L284 235M370 235L371 236L370 235z"/>
<path style="fill:#607b8b; stroke:none;" d="M419 235L422 238L419 235M452 235L449 239L452 235z"/>
<path style="fill:#a2bccc; stroke:none;" d="M147 236L148 237L147 236M178 236L179 237L178 236M255 236L256 237L255 236M311.333 236.667L311.667 237.333L311.333 236.667M337 236L338 237L337 236M369 236L370 237L369 236M419 236L420 237L419 236M452 236L453 237L452 236z"/>
<path style="fill:#607b8b; stroke:none;" d="M465 236L466 237L465 236z"/>
<path style="fill:#a2bccc; stroke:none;" d="M148 237L149 238L148 237M177 237L178 238L177 237M256 237L257 238L256 237M283 237L284 238L283 237M338 237L339 238L338 237M368 237L369 238L368 237M420 237L421 238L420 237M451 237L452 238L451 237z"/>
<path style="fill:#607b8b; stroke:none;" d="M466 237L467 238L466 237z"/>
<path style="fill:#a2bccc; stroke:none;" d="M149 238L150 239L149 238M176 238L177 239L176 238M257 238L258 239L257 238M282 238L283 239L282 238M339 238L340 239L339 238M367 238L368 239L367 238z"/>
<path style="fill:#607b8b; stroke:none;" d="M422 238L423 239L422 238z"/>
<path style="fill:#a2bccc; stroke:none;" d="M450 238L451 239L450 238z"/>
<path style="fill:#607b8b; stroke:none;" d="M467 238L468 239L467 238M493 238L495 240L495 238L493 238z"/>
<path style="fill:#a2bccc; stroke:none;" d="M150 239L151 240L150 239z"/>
<path style="fill:#607b8b; stroke:none;" d="M151 239L152 240L151 239M174 239L175 240L174 239z"/>
<path style="fill:#a2bccc; stroke:none;" d="M175 239L176 240L175 239M258 239L259 240L258 239M281 239L282 240L281 239M310 239L311 240L310 239M340 239L341 240L340 239z"/>
<path style="fill:#607b8b; stroke:none;" d="M341 239L342 240L341 239M365 239L366 240L365 239z"/>
<path style="fill:#a2bccc; stroke:none;" d="M366 239L367 240L366 239M423 239L424 240L423 239M448 239L449 240L448 239M468 239L469 240L468 239z"/>
<path style="fill:#607b8b; stroke:none;" d="M491 239L492 240L491 239z"/>
<path style="fill:#a2bccc; stroke:none;" d="M492 239L493 240L492 239M152 240L153 241L152 240z"/>
<path style="fill:#607b8b; stroke:none;" d="M153 240L154 241L153 240M172 240L173 241L172 240z"/>
<path style="fill:#a2bccc; stroke:none;" d="M173 240L174 241L173 240M259 240L260 241L259 240M280 240L281 241L280 240M342 240L343 241L342 240z"/>
<path style="fill:#607b8b; stroke:none;" d="M343 240L344 241L343 240M363 240L364 241L363 240z"/>
<path style="fill:#a2bccc; stroke:none;" d="M364 240L365 241L364 240M425 240L426 241L425 240z"/>
<path style="fill:#607b8b; stroke:none;" d="M426 240L427 241L426 240M445 240L446 241L445 240z"/>
<path style="fill:#a2bccc; stroke:none;" d="M446 240L447 241L446 240z"/>
<path style="fill:#607b8b; stroke:none;" d="M470 240L471 241L470 240M489 240L490 241L489 240z"/>
<path style="fill:#a2bccc; stroke:none;" d="M490 240L491 241L490 240M494.333 240.667L494.667 241.333L494.333 240.667M155 241L156 242L155 241z"/>
<path style="fill:#607b8b; stroke:none;" d="M156 241L157 242L156 241M169 241L170 242L169 241z"/>
<path style="fill:#a2bccc; stroke:none;" d="M170.667 241.333L171.333 241.667L170.667 241.333z"/>
<path style="fill:#607b8b; stroke:none;" d="M260 241L261 242L260 241z"/>
<path style="fill:#a2bccc; stroke:none;" d="M279 241L280 242L279 241M309.333 241.667L309.667 242.333L309.333 241.667M345 241L346 242L345 241z"/>
<path style="fill:#607b8b; stroke:none;" d="M346 241L347 242L346 241M360 241L361 242L360 241z"/>
<path style="fill:#a2bccc; stroke:none;" d="M361 241L362 242L361 241M427.667 241.333L428.333 241.667L427.667 241.333z"/>
<path style="fill:#607b8b; stroke:none;" d="M429 241L430 242L429 241M442 241L443 242L442 241z"/>
<path style="fill:#a2bccc; stroke:none;" d="M443.667 241.333L444.333 241.667L443.667 241.333M472 241L473 242L472 241z"/>
<path style="fill:#607b8b; stroke:none;" d="M473 241L474 242L473 241M486 241L487 242L486 241z"/>
<path style="fill:#a2bccc; stroke:none;" d="M487 241L488 242L487 241z"/>
<path style="fill:#607b8b; stroke:none;" d="M495 241L496 242L495 241z"/>
<path style="fill:#a2bccc; stroke:none;" d="M160 242L160 243L167 243L160 242M350 242L350 243L357 243L350 242M432 242L432 243L440 243L432 242M477 242L477 243L484 243L477 242M278 243L279 244L278 243M277 244L278 245L277 244M308.333 244.667L308.667 245.333L308.333 244.667M276 245L277 246L276 245M275 246L276 247L275 246M307.333 246.667L307.667 247.333L307.333 246.667M274 247L275 248L274 247M273 248L274 249L273 248M306.333 249.667L306.667 250.333L306.333 249.667M272 250L273 251L272 250M271 251L272 252L271 251M270 252L271 253L270 252M305 252L306 253L305 252M269 253L270 254L269 253M268 254L269 255L268 254M304.333 254.667L304.667 255.333L304.333 254.667M267 255L268 256L267 255M266 257L267 258L266 257M303.333 257.667L303.667 258.333L303.333 257.667M265 258L266 259L265 258M264 259L265 260L264 259M302.333 259.667L302.667 260.333L302.333 259.667M263 260L264 261L263 260M262 261L263 262L262 261M301.333 262.667L301.667 263.333L301.333 262.667M261 263L262 264L261 263M260 264L261 265L260 264M259 265L260 266L259 265M297 265L297 266L301 266L297 265M258 266L259 267L258 266M269 266L269 267L280 267L269 266z"/>
</svg>
